<svg width="195" height="51" viewBox="0 0 195 51" fill="none" xmlns="http://www.w3.org/2000/svg">
<path d="M48.9824 18.0723L43.7188 34.1367H39.8906L34.5723 17.9492C33.7702 17.6667 33.2461 17.3522 33 17.0059L33.2734 14.6816H39.8359L40.1094 17.0059C39.8451 17.3704 39.3711 17.6667 38.6875 17.8945L41.0664 26.1934C41.2669 26.8314 41.4264 27.4512 41.5449 28.0527C41.6634 28.6452 41.7454 29.2103 41.791 29.748L41.8184 30.2266H42.2148C42.2331 29.0872 42.4655 27.7611 42.9121 26.248L45.4004 17.9219C44.6986 17.694 44.2064 17.3887 43.9238 17.0059L44.1973 14.6816H50.582L50.8691 17.0059C50.5319 17.416 49.903 17.7715 48.9824 18.0723ZM51.5254 17.0059L51.7988 14.6816H58.3613L58.6348 17.0059C58.334 17.3613 57.8236 17.6758 57.1035 17.9492V30.7461C57.8236 31.0378 58.334 31.3477 58.6348 31.6758L58.3613 34H51.7988L51.5254 31.6758C51.7715 31.3568 52.2865 31.0469 53.0703 30.7461V17.9492C52.2956 17.6758 51.7806 17.3613 51.5254 17.0059ZM75.5879 20.3418C75.5879 21.6087 75.1914 22.6706 74.3984 23.5273C73.6055 24.3841 72.612 25.0358 71.418 25.4824C72.3477 25.8743 72.9629 26.3529 73.2637 26.918L75.3008 30.8145C76.194 31.097 76.7956 31.4388 77.1055 31.8398L76.8184 34H72.0879L68.8613 27.1367C68.5788 26.444 68.237 26.0977 67.8359 26.0977H66.0176V30.582C67.3665 30.8828 68.2142 31.2474 68.5605 31.6758L68.2734 34H60.7129L60.4395 31.6758C60.6855 31.3568 61.2005 31.0469 61.9844 30.7461V17.9492C61.2096 17.6758 60.6947 17.3613 60.4395 17.0059L60.7129 14.6816H67.8633C69.6042 14.6999 71.0443 14.8867 72.1836 15.2422C73.3229 15.5885 74.1751 16.1719 74.7402 16.9922C75.3053 17.8034 75.5879 18.9199 75.5879 20.3418ZM67.6582 17.7305H66.0176V23.0488H67.6035C68.8796 23.0488 69.8275 22.8574 70.4473 22.4746C71.0762 22.0918 71.3906 21.4036 71.3906 20.4102C71.3906 19.4258 71.0716 18.7331 70.4336 18.332C69.8047 17.931 68.8796 17.7305 67.6582 17.7305ZM78.541 18.9336L76.7773 18.7148V14.709H92.459V18.7148L90.6953 18.9336C90.4492 18.7604 90.2168 18.3685 89.998 17.7578H86.6348V30.7461C87.3639 31.0378 87.8789 31.3477 88.1797 31.6758L87.8926 34H81.3438L81.0566 31.6758C81.3027 31.3568 81.8177 31.0469 82.6016 30.7461V17.7578H79.2383C79.0195 18.3685 78.7871 18.7604 78.541 18.9336ZM108.441 27C108.441 29.4427 107.885 31.2565 106.773 32.4414C105.671 33.6263 103.88 34.2188 101.4 34.2188C99.7415 34.2188 98.4199 33.9635 97.4355 33.4531C96.4512 32.9336 95.7448 32.1406 95.3164 31.0742C94.888 30.0078 94.6738 28.6497 94.6738 27V17.9492C93.9538 17.6849 93.4388 17.3704 93.1289 17.0059L93.4023 14.6816H99.9648L100.238 17.0059C99.9375 17.3613 99.4271 17.6758 98.707 17.9492V27.1094C98.707 28.4583 98.9258 29.4564 99.3633 30.1035C99.8008 30.7415 100.589 31.0605 101.729 31.0605C102.868 31.0605 103.67 30.7324 104.135 30.0762C104.6 29.4108 104.832 28.4219 104.832 27.1094V17.9492C104.057 17.6758 103.542 17.3613 103.287 17.0059L103.574 14.6816H109.699L109.986 17.0059C109.686 17.3613 109.171 17.6758 108.441 17.9492V27ZM112.42 18.9336L110.656 18.7148V14.709H126.338V18.7148L124.574 18.9336C124.328 18.7604 124.096 18.3685 123.877 17.7578H120.514V30.7461C121.243 31.0378 121.758 31.3477 122.059 31.6758L121.771 34H115.223L114.936 31.6758C115.182 31.3568 115.697 31.0469 116.48 30.7461V17.7578H113.117C112.898 18.3685 112.666 18.7604 112.42 18.9336ZM138.656 28.873L140.734 29.1328V34H127.732L127.459 31.6758C127.705 31.3568 128.22 31.0469 129.004 30.7461V17.9492C128.229 17.6758 127.714 17.3613 127.459 17.0059L127.732 14.6816H140.502V19.5488L138.438 19.8086C138 19.4349 137.654 18.7422 137.398 17.7305H133.037V22.543H136.92C137.148 21.9961 137.38 21.6042 137.617 21.3672L139.381 21.5723V26.5488L137.617 26.7812C137.389 26.5898 137.157 26.1979 136.92 25.6055H133.037V30.9512H137.617C137.863 29.9668 138.21 29.2741 138.656 28.873ZM143.373 30.6094L148.746 14.5449H152.588L158.166 30.6914C158.95 30.974 159.497 31.3021 159.807 31.6758L159.533 34H152.984L152.697 31.6758C152.925 31.3841 153.376 31.1061 154.051 30.8418L153.285 28.4902H147.693L146.982 30.7461C147.639 31.0104 148.126 31.3203 148.445 31.6758L148.158 34H141.773L141.5 31.6758C141.846 31.2474 142.471 30.8919 143.373 30.6094ZM150.688 18.9336L150.66 18.4551H150.264C150.264 19.5853 150.031 20.9115 149.566 22.4336L148.473 25.9062H152.479L151.412 22.4883C150.984 21.1758 150.742 19.9909 150.688 18.9336ZM170.443 17.9902C169.887 17.7441 169.049 17.6211 167.928 17.6211C166.807 17.6211 165.9 18.1042 165.207 19.0703C164.514 20.0365 164.168 21.7363 164.168 24.1699C164.168 26.5944 164.501 28.3171 165.166 29.3379C165.831 30.3587 166.816 30.8691 168.119 30.8691C170.115 30.8691 171.906 30.5684 173.492 29.9668L174.504 32.4551C172.526 33.6309 170.202 34.2188 167.531 34.2188C164.861 34.2188 162.933 33.4622 161.748 31.9492C160.563 30.4544 159.971 27.9844 159.971 24.5391C159.971 21.1029 160.704 18.5645 162.172 16.9238C163.639 15.2741 165.695 14.4492 168.338 14.4492C170.471 14.4492 172.499 15.0417 174.422 16.2266V16.8555C174.422 17.0651 174.39 17.3887 174.326 17.8262C174.271 18.2546 174.185 18.7057 174.066 19.1797C173.957 19.6445 173.82 20.041 173.656 20.3691H171.004C170.74 19.8496 170.553 19.0566 170.443 17.9902ZM187.725 30.7461V25.1543H181.572V30.7461C182.292 31.0378 182.803 31.3477 183.104 31.6758L182.83 34H176.268L175.994 31.6758C176.24 31.3568 176.755 31.0469 177.539 30.7461V17.9492C176.764 17.6758 176.249 17.3613 175.994 17.0059L176.268 14.6816H182.83L183.104 17.0059C182.803 17.3613 182.292 17.6758 181.572 17.9492V22.3516H187.725V17.9492C186.95 17.6758 186.435 17.3613 186.18 17.0059L186.467 14.6816H193.016L193.303 17.0059C193.002 17.3613 192.487 17.6758 191.758 17.9492V30.7461C192.487 31.0378 193.002 31.3477 193.303 31.6758L193.016 34H186.467L186.18 31.6758C186.426 31.3568 186.941 31.0469 187.725 30.7461Z" fill="url(#paint0_linear_4_15)"/>
<path d="M8 16H2V31H9C10.7 31 12 32.3 12 34V20C12 17.8 10.2 16 8 16Z" stroke="url(#paint1_linear_4_15)" stroke-width="2" stroke-linecap="round" stroke-linejoin="round"/>
<path d="M16 25L18 27L22 23" stroke="url(#paint2_linear_4_15)" stroke-width="2" stroke-linecap="round" stroke-linejoin="round"/>
<path d="M22 19V16H16C13.8 16 12 17.8 12 20V34C12 32.3 13.3 31 15 31H22V28.7" stroke="url(#paint3_linear_4_15)" stroke-width="2" stroke-linecap="round" stroke-linejoin="round"/>
<defs>
<linearGradient id="paint0_linear_4_15" x1="114" y1="0" x2="114" y2="51" gradientUnits="userSpaceOnUse">
<stop stop-color="#7C3AED"/>
<stop offset="1" stop-color="#EDA53A" stop-opacity="0.53"/>
</linearGradient>
<linearGradient id="paint1_linear_4_15" x1="7" y1="16" x2="7" y2="34" gradientUnits="userSpaceOnUse">
<stop stop-color="#7C3AED"/>
<stop offset="1" stop-color="#EDA53A" stop-opacity="0.53"/>
</linearGradient>
<linearGradient id="paint2_linear_4_15" x1="19" y1="23" x2="19" y2="27" gradientUnits="userSpaceOnUse">
<stop stop-color="#7C3AED"/>
<stop offset="1" stop-color="#EDA53A" stop-opacity="0.53"/>
</linearGradient>
<linearGradient id="paint3_linear_4_15" x1="17" y1="16" x2="17" y2="34" gradientUnits="userSpaceOnUse">
<stop stop-color="#7C3AED"/>
<stop offset="1" stop-color="#EDA53A" stop-opacity="0.53"/>
</linearGradient>
</defs>
</svg>
